# xmcd
#
# Track frame offsets:
#	151
#	47420
#	69712
#	114315
#	165873
#	198075
#
# Disc length: 3353 seconds
#
# Revision: 1
# Processed by: cddbd v1.4PL0 Copyright (c) Steve Scherf et al.
# Submitted via: audiograbber 1.80
#
DISCID=400d1706
DTITLE=Santana - Selection
DYEAR=1900
DGENRE=
TTITLE0=La puesta del sol
TTITLE1=Soul sacrifice
TTITLE2=Jingo
TTITLE3=Latin tropical
TTITLE4=Everyday
TTITLE5=El corazon manda
EXTD=
EXTT0=
EXTT1=
EXTT2=
EXTT3=
EXTT4=
EXTT5=
PLAYORDER=
